# xmcd
#
# Track frame offsets:
#	150
#	16903
#	66543
#	90960
#	108560
#	146178
#	171708
#	184838
#	213410
#	231983
#	256985
#
# Disc length: 3684 seconds
#
# Revision: 2
# Processed by: cddbd v1.4PL0 Copyright (c) Steve Scherf et al.
# Submitted via: audiograbber 1.82.01
#
DISCID=a50e620b
DTITLE=Roy Book Binder - Live Book... Don't Start Me Talkin'...
DYEAR=1994
DGENRE=Blues
TTITLE0=Black Dog Blues
TTITLE1=Candy Man
TTITLE2=Let's Get Drunk Again
TTITLE3=I'm Goin' Home Someday
TTITLE4=Statesboro Blues
TTITLE5=Kentucky Blues
TTITLE6=Davis-Travis Rag
TTITLE7=Hesitation Blues
TTITLE8=King Edward Blues
TTITLE9=In The Jailhouse Now
TTITLE10=While He Served His Time
EXTD=
EXTT0=
EXTT1=
EXTT2=
EXTT3=
EXTT4=
EXTT5=
EXTT6=
EXTT7=
EXTT8=
EXTT9=
EXTT10=
PLAYORDER=
